<svg xmlns="http://www.w3.org/2000/svg" viewBox="0 0 446.08 511.72"><defs><style>.cls-1{fill:#6f6fa9;}.cls-2{fill:#575480;}</style></defs><title>icosahedron</title><g id="Layer_2" data-name="Layer 2"><g id="Layer_1_copy" data-name="Layer 1 copy"><path class="cls-1" d="M446,377.32c0,5.06-1.73,8.34-6.19,10.91Q334.51,448.89,229.31,509.81c-4.4,2.55-8.15,2.55-12.54,0Q111.56,448.9,6.23,388.22C1.77,385.65.05,382.37.06,377.31Q.2,256.07,0,134.82c0-6.28,2.56-9.68,7.69-12.62q104.63-59.88,209.13-120C217.94,1.55,219,.73,220,0h6c9.73,5.71,19.41,11.5,29.18,17.12q91.54,52.62,183.17,105.09c5.4,3.09,7.7,6.76,7.69,13.12Q445.81,256.32,446,377.32Z"/></g><g id="Layer_1-2" data-name="Layer 1"><path class="cls-2" d="M226,0c9.73,5.71,19.41,11.5,29.18,17.12q91.54,52.62,183.17,105.09c5.4,3.09,7.7,6.76,7.69,13.12q-.27,121-.05,242c0,5.06-1.73,8.34-6.19,10.91Q334.51,448.89,229.31,509.81c-4.4,2.55-8.15,2.55-12.54,0Q111.56,448.9,6.23,388.22C1.77,385.65.05,382.37.06,377.31Q.2,256.07,0,134.82c0-6.28,2.56-9.68,7.69-12.62q104.63-59.88,209.13-120C217.94,1.55,219,.73,220,0ZM348,173.19H98.08L223,393.45ZM85.74,184.24,19.21,373.34l188.68,26.21Zm341.13,189.1c-22.21-63.12-44.17-125.5-66.55-189.09L238.16,399.57Zm-324.54-217H343.74L223,20.22ZM214.8,416.89,50.63,394.07l-.32.87,164.49,95Zm181-22-.33-.85L231.29,416.88v73Zm32.83-65.33.75-.2V143.9l-57.2,25.29Q400.53,249.76,428.63,329.57Zm-412.22-.2,1,.15L73.89,169.17,16.41,143.81Zm9.76-199c17.6,7.79,34.22,15,50.68,22.54,3.77,1.72,5.9,1.31,8.68-1.85Q129.12,101.53,173,52.26c3-3.39,6-6.83,8.95-10.25l-.65-.72Zm238.66-89-.64.75c2.45,2.8,4.88,5.62,7.35,8.4q44.71,50.48,89.37,101c2.55,2.89,4.45,3.22,7.9,1.61,12.49-5.83,25.16-11.26,37.77-16.84l13.24-5.91Z"/></g></g></svg>